<svg xmlns="http://www.w3.org/2000/svg" width="1200" height="630" viewBox="0 0 1200 630" fill="none">
  <rect width="1200" height="630" fill="#060607"/>
  <g opacity=".28" filter="url(#a)">
    <circle cx="188" cy="118" r="170" fill="#48BB9B"/>
  </g>
  <path d="M0 0h1200v630H0z" fill="url(#b)"/>
  <path d="M0 0h1200v630H0z" stroke="url(#c)" stroke-width="2"/>
  <rect x="818" y="58" width="286" height="286" rx="28" fill="rgba(255,255,255,.02)" stroke="rgba(140,227,193,.22)"/>
  <rect x="850" y="194" width="222" height="118" rx="18" fill="#101916" stroke="rgba(140,227,193,.18)"/>
  <rect x="68" y="72" width="340" height="42" rx="21" fill="rgba(255,255,255,.04)" stroke="rgba(140,227,193,.24)"/>
  <text x="238" y="98" text-anchor="middle" fill="#B8F0DA" font-family="Arial,sans-serif" font-size="16" letter-spacing="3">AI APP STABILIZATION</text>
  <text x="68" y="196" fill="#F8F8F3" font-family="Georgia,serif" font-size="72">Fix your AI-generated app</text>
  <text x="68" y="272" fill="#F8F8F3" font-family="Georgia,serif" font-size="72">before users see it break.</text>
  <text x="68" y="356" fill="#B4B4BC" font-family="Arial,sans-serif" font-size="28">Senior full-stack technical audits and stabilization sprints for Lovable,</text>
  <text x="68" y="394" fill="#B4B4BC" font-family="Arial,sans-serif" font-size="28">Bolt.new, v0, Cursor-generated apps, and unstable MVPs.</text>
  <text x="872" y="230" fill="#9CA3AF" font-family="Arial,sans-serif" font-size="14" letter-spacing="2">DELIVERY MAP</text>
  <text x="872" y="262" fill="#D4D4D8" font-family="Arial,sans-serif" font-size="18">Generated UI</text>
  <text x="1048" y="262" fill="#F8F8F3" font-family="Georgia,serif" font-size="18" text-anchor="end">Validate</text>
  <text x="872" y="290" fill="#D4D4D8" font-family="Arial,sans-serif" font-size="18">Auth flow</text>
  <text x="1048" y="290" fill="#F8F8F3" font-family="Georgia,serif" font-size="18" text-anchor="end">High risk</text>
  <text x="872" y="318" fill="#D4D4D8" font-family="Arial,sans-serif" font-size="18">Launch blockers</text>
  <text x="1048" y="318" fill="#F8F8F3" font-family="Georgia,serif" font-size="18" text-anchor="end">Fix first</text>
  <line x1="68" y1="538" x2="132" y2="538" stroke="#8CE3C1"/>
  <text x="154" y="545" fill="#D4D4D8" font-family="Arial,sans-serif" font-size="20">Lovable</text>
  <text x="258" y="545" fill="#D4D4D8" font-family="Arial,sans-serif" font-size="20">Bolt.new</text>
  <text x="392" y="545" fill="#D4D4D8" font-family="Arial,sans-serif" font-size="20">v0</text>
  <text x="446" y="545" fill="#D4D4D8" font-family="Arial,sans-serif" font-size="20">Cursor-generated code</text>
  <defs>
    <filter id="a" x="-82" y="-152" width="540" height="540" filterUnits="userSpaceOnUse" color-interpolation-filters="sRGB">
      <feGaussianBlur stdDeviation="50"/>
    </filter>
    <pattern id="b" width="54" height="54" patternUnits="userSpaceOnUse">
      <path d="M54 0H0V54" stroke="rgba(255,255,255,.05)"/>
    </pattern>
    <linearGradient id="c" x1="0" y1="0" x2="0" y2="630" gradientUnits="userSpaceOnUse">
      <stop stop-color="rgba(255,255,255,.12)"/>
      <stop offset="1" stop-color="rgba(255,255,255,0)"/>
    </linearGradient>
  </defs>
</svg>
