<svg xmlns="http://www.w3.org/2000/svg" width="1200" height="630" viewBox="0 0 1200 630" fill="none">
  <rect width="1200" height="630" fill="#060607"/>
  <g opacity=".28" filter="url(#a)">
    <circle cx="188" cy="118" r="170" fill="#885CFF"/>
  </g>
  <path d="M0 0h1200v630H0z" fill="url(#b)"/>
  <path d="M0 0h1200v630H0z" stroke="url(#c)" stroke-width="2"/>
  <rect x="818" y="58" width="286" height="286" rx="28" fill="rgba(255,255,255,.02)" stroke="rgba(183,153,255,.22)"/>
  <rect x="850" y="194" width="222" height="118" rx="18" fill="#14141A" stroke="rgba(183,153,255,.18)"/>
  <rect x="850" y="92" width="44" height="44" rx="12" fill="#F8F8F3"/>
  <text x="872" y="122" text-anchor="middle" fill="#060607" font-family="Georgia,serif" font-size="28" font-weight="700">H</text>
  <text x="850" y="174" fill="#CDBDFF" font-family="Arial,sans-serif" font-size="14" letter-spacing="3">HEXGLYPH</text>
  <text x="872" y="230" fill="#9CA3AF" font-family="Arial,sans-serif" font-size="14" letter-spacing="2">DELIVERY MAP</text>
  <text x="872" y="262" fill="#D4D4D8" font-family="Arial,sans-serif" font-size="18">Scope</text>
  <text x="1048" y="262" fill="#F8F8F3" font-family="Georgia,serif" font-size="18" text-anchor="end">Clear</text>
  <text x="872" y="290" fill="#D4D4D8" font-family="Arial,sans-serif" font-size="18">Risk</text>
  <text x="1048" y="290" fill="#F8F8F3" font-family="Georgia,serif" font-size="18" text-anchor="end">Ranked</text>
  <text x="872" y="318" fill="#D4D4D8" font-family="Arial,sans-serif" font-size="18">Next step</text>
  <text x="1048" y="318" fill="#F8F8F3" font-family="Georgia,serif" font-size="18" text-anchor="end">Ready</text>
  <rect x="68" y="72" width="212" height="42" rx="21" fill="rgba(255,255,255,.04)" stroke="rgba(183,153,255,.24)"/>
  <text x="174" y="98" text-anchor="middle" fill="#CDBDFF" font-family="Arial,sans-serif" font-size="16" letter-spacing="3">HEXGLYPH</text>
  <text x="68" y="196" fill="#F8F8F3" font-family="Georgia,serif" font-size="74">Rescue unstable software.</text>
  <text x="68" y="274" fill="#F8F8F3" font-family="Georgia,serif" font-size="74">Ship production-ready systems faster.</text>
  <text x="68" y="356" fill="#B4B4BC" font-family="Arial,sans-serif" font-size="28">Technical audits, stabilization sprints, and production-grade development for</text>
  <text x="68" y="394" fill="#B4B4BC" font-family="Arial,sans-serif" font-size="28">unstable MVPs, AI-generated apps, and legacy web systems.</text>
  <line x1="68" y1="538" x2="132" y2="538" stroke="#B799FF"/>
  <text x="154" y="545" fill="#D4D4D8" font-family="Arial,sans-serif" font-size="20">Technical audits</text>
  <text x="350" y="545" fill="#D4D4D8" font-family="Arial,sans-serif" font-size="20">Stabilization sprints</text>
  <text x="600" y="545" fill="#D4D4D8" font-family="Arial,sans-serif" font-size="20">Production-ready delivery</text>
  <defs>
    <filter id="a" x="-82" y="-152" width="540" height="540" filterUnits="userSpaceOnUse" color-interpolation-filters="sRGB">
      <feGaussianBlur stdDeviation="50"/>
    </filter>
    <pattern id="b" width="54" height="54" patternUnits="userSpaceOnUse">
      <path d="M54 0H0V54" stroke="rgba(255,255,255,.05)"/>
    </pattern>
    <linearGradient id="c" x1="0" y1="0" x2="0" y2="630" gradientUnits="userSpaceOnUse">
      <stop stop-color="rgba(255,255,255,.12)"/>
      <stop offset="1" stop-color="rgba(255,255,255,0)"/>
    </linearGradient>
  </defs>
</svg>
