<svg xmlns="http://www.w3.org/2000/svg" width="1200" height="630" viewBox="0 0 1200 630" fill="none">
  <rect width="1200" height="630" fill="#060607"/>
  <g opacity=".28" filter="url(#a)">
    <circle cx="188" cy="118" r="170" fill="#E8B347"/>
  </g>
  <path d="M0 0h1200v630H0z" fill="url(#b)"/>
  <path d="M0 0h1200v630H0z" stroke="url(#c)" stroke-width="2"/>
  <rect x="68" y="72" width="308" height="42" rx="21" fill="rgba(255,255,255,.04)" stroke="rgba(240,204,122,.24)"/>
  <text x="222" y="98" text-anchor="middle" fill="#F6DFAA" font-family="Arial,sans-serif" font-size="16" letter-spacing="3">TECHNICAL AUDIT SERVICE</text>
  <text x="68" y="190" fill="#F8F8F3" font-family="Georgia,serif" font-size="66">Get a technical audit before</text>
  <text x="68" y="260" fill="#F8F8F3" font-family="Georgia,serif" font-size="66">you spend more money building</text>
  <text x="68" y="330" fill="#F8F8F3" font-family="Georgia,serif" font-size="66">the wrong thing.</text>
  <text x="68" y="404" fill="#B4B4BC" font-family="Arial,sans-serif" font-size="28">Risk-ranked diagnosis, architecture review, delivery plan, and</text>
  <text x="68" y="442" fill="#B4B4BC" font-family="Arial,sans-serif" font-size="28">production-readiness recommendations for existing codebases.</text>
  <rect x="818" y="58" width="286" height="286" rx="28" fill="rgba(255,255,255,.02)" stroke="rgba(240,204,122,.22)"/>
  <rect x="850" y="194" width="222" height="118" rx="18" fill="#1A1710" stroke="rgba(240,204,122,.18)"/>
  <text x="872" y="230" fill="#9CA3AF" font-family="Arial,sans-serif" font-size="14" letter-spacing="2">DELIVERY MAP</text>
  <text x="872" y="262" fill="#D4D4D8" font-family="Arial,sans-serif" font-size="18">Architecture</text>
  <text x="1048" y="262" fill="#F8F8F3" font-family="Georgia,serif" font-size="18" text-anchor="end">Mapped</text>
  <text x="872" y="290" fill="#D4D4D8" font-family="Arial,sans-serif" font-size="18">Critical risks</text>
  <text x="1048" y="290" fill="#F8F8F3" font-family="Georgia,serif" font-size="18" text-anchor="end">Ranked</text>
  <text x="872" y="318" fill="#D4D4D8" font-family="Arial,sans-serif" font-size="18">Next step</text>
  <text x="1048" y="318" fill="#F8F8F3" font-family="Georgia,serif" font-size="18" text-anchor="end">Clear</text>
  <line x1="68" y1="538" x2="132" y2="538" stroke="#F0CC7A"/>
  <text x="154" y="545" fill="#D4D4D8" font-family="Arial,sans-serif" font-size="20">Codebase audit</text>
  <text x="324" y="545" fill="#D4D4D8" font-family="Arial,sans-serif" font-size="20">Risk map</text>
  <text x="430" y="545" fill="#D4D4D8" font-family="Arial,sans-serif" font-size="20">Implementation plan</text>
  <defs>
    <filter id="a" x="-82" y="-152" width="540" height="540" filterUnits="userSpaceOnUse" color-interpolation-filters="sRGB">
      <feGaussianBlur stdDeviation="50"/>
    </filter>
    <pattern id="b" width="54" height="54" patternUnits="userSpaceOnUse">
      <path d="M54 0H0V54" stroke="rgba(255,255,255,.05)"/>
    </pattern>
    <linearGradient id="c" x1="0" y1="0" x2="0" y2="630" gradientUnits="userSpaceOnUse">
      <stop stop-color="rgba(255,255,255,.12)"/>
      <stop offset="1" stop-color="rgba(255,255,255,0)"/>
    </linearGradient>
  </defs>
</svg>
